<svg width="14" height="14" viewBox="0 0 14 14" fill="none" xmlns="http://www.w3.org/2000/svg">
<path d="M7.34018 1.77283C7.52469 1.35785 8.10562 1.39127 8.26063 1.7876L8.28619 1.87177L8.85585 4.54611C8.98286 5.14179 9.45614 5.59718 10.0472 5.70757L10.1671 5.72502L12.8866 6.00942C13.3384 6.05667 13.4861 6.62012 13.1569 6.88996L13.0849 6.93939L10.7178 8.30803C10.1905 8.61286 9.90292 9.20375 9.98053 9.79998L10.0014 9.91999L10.571 12.5943C10.6655 13.0384 10.1759 13.3526 9.81758 13.1233L9.74756 13.0699L7.71483 11.2411C7.26178 10.8336 6.61088 10.7436 6.06768 11.0021L5.96073 11.0576L3.59362 12.4263C3.20043 12.6536 2.74958 12.2848 2.85713 11.873L2.88636 11.7907L3.997 9.29206C4.24454 8.73529 4.12953 8.08814 3.71593 7.65139L3.62953 7.56675L1.59681 5.73798C1.25919 5.43431 1.47037 4.8919 1.89509 4.86682L1.98321 4.86917L4.70276 5.15357C5.30865 5.21687 5.88843 4.90792 6.176 4.37975L6.22955 4.27145L7.34018 1.77283Z" stroke="white" stroke-opacity="0.7"/>
</svg>
