<svg width="21" height="21" viewBox="0 0 21 21" fill="none" xmlns="http://www.w3.org/2000/svg">
<path d="M6.64292 1.53397C6.58569 1.08344 7.09987 0.811026 7.43781 1.06964L7.50329 1.12838L11.3674 5.23722C11.8126 5.71061 12.512 5.84315 13.0998 5.56606L18.2019 3.16086C18.6126 2.96732 19.0306 3.3727 18.8893 3.77393L18.8538 3.85436L16.1397 8.79917C15.8465 9.33329 15.9066 9.9875 16.2822 10.4573L16.3618 10.5482L20.2263 14.6579C20.5367 14.9886 20.2809 15.5108 19.856 15.5008L19.7684 15.4913L14.2269 14.4383C13.6283 14.3246 13.0245 14.5841 12.6938 15.0865L12.6316 15.1904L9.9175 20.1352C9.69901 20.5331 9.12249 20.4512 9.00093 20.0436L8.98325 19.958L8.27222 14.3617C8.19545 13.7573 7.76202 13.2643 7.18209 13.105L7.06434 13.0774L1.52281 12.0244C1.04699 11.934 0.964645 11.2868 1.40268 11.0802L6.5048 8.675C7.05591 8.4152 7.39162 7.85059 7.36386 7.24978L7.35354 7.1294L6.64292 1.53397Z" stroke="white" stroke-opacity="0.7"/>
</svg>